<svg width="36" height="18" viewBox="0 0 36 18" fill="none" xmlns="http://www.w3.org/2000/svg">
<path d="M27.3948 9.79791C27.4668 9.84652 27.5471 9.82492 27.6246 9.82492C28.0565 9.82492 28.4856 9.82492 28.9174 9.82492C29.1887 9.82492 29.46 9.82492 29.7286 9.82492C29.8282 9.82492 29.8587 9.78441 29.831 9.70068C29.676 9.27128 29.377 8.99041 28.923 8.88778C28.7375 8.84457 28.5437 8.85267 28.3555 8.87968C27.871 8.9472 27.4862 9.31719 27.3976 9.79791M30.6006 11.0105C30.6061 11.0996 30.5536 11.1726 30.512 11.2482C30.1078 11.9612 29.4933 12.3311 28.6544 12.3581C27.3229 12.4014 26.2709 11.2752 26.4951 9.87083C26.6086 9.16325 26.9851 8.63122 27.6468 8.30984C28.1838 8.05057 28.7541 8.02357 29.3189 8.20721C30.0719 8.45297 30.5037 8.98771 30.6837 9.73039C30.7335 9.94104 30.7556 10.1571 30.7363 10.3732C30.7252 10.4866 30.7003 10.5136 30.5895 10.5163C30.5093 10.519 30.429 10.5163 30.3487 10.5163H27.7215C27.6412 10.5163 27.5609 10.5163 27.4806 10.5163C27.381 10.519 27.3478 10.5541 27.3699 10.6405C27.4862 11.0861 27.7603 11.3967 28.217 11.5155C28.779 11.656 29.2773 11.5425 29.6538 11.0807C29.7175 11.0024 29.7839 10.97 29.8836 10.9727C30.1051 10.9781 30.3265 10.9754 30.548 10.9781C30.5646 10.9781 30.5812 10.9943 30.6034 11.0051" fill="#2D3463"/>
<path d="M21.9192 9.52502C21.9192 9.868 21.9192 10.211 21.9192 10.5567C21.9192 10.7457 21.8943 10.9294 21.8444 11.1103C21.634 11.8449 21.0721 12.2554 20.3191 12.3445C20.0505 12.3769 19.7792 12.3661 19.5079 12.3094C18.7522 12.1501 18.1846 11.5802 18.1265 10.6998C18.121 10.6215 18.1237 10.5432 18.1237 10.4649C18.1237 9.81669 18.1237 9.16853 18.1237 8.52036C18.1237 8.47175 18.1237 8.42314 18.1237 8.37183C18.1293 8.21249 18.1403 8.19628 18.2898 8.19358C18.4726 8.19088 18.6525 8.19358 18.8324 8.19358C18.8435 8.19358 18.8518 8.19358 18.8629 8.19358C18.9321 8.19358 18.9792 8.22329 18.9792 8.29621C18.9819 8.37453 18.9819 8.45285 18.9819 8.53117C18.9819 9.11991 18.9819 9.70866 18.9819 10.2974C18.9819 10.454 18.9902 10.6107 19.0235 10.7673C19.1176 11.2291 19.4387 11.5073 19.9149 11.5478C20.5184 11.5991 20.953 11.2615 21.0278 10.6755C21.0471 10.5297 21.0499 10.3811 21.0499 10.2353C21.0499 9.66545 21.0499 9.09561 21.0499 8.52577C21.0499 8.44745 21.0499 8.36913 21.0555 8.29081C21.0582 8.23679 21.0942 8.19628 21.1496 8.19628C21.371 8.19358 21.5925 8.19628 21.814 8.19628C21.8694 8.19628 21.9081 8.22869 21.9109 8.28541C21.9164 8.35292 21.9137 8.42314 21.9137 8.49066C21.9137 8.83364 21.9137 9.17933 21.9137 9.52231L21.9192 9.52502Z" fill="#2D3463"/>
<path d="M24.2921 12.2684C23.838 12.2684 23.3868 12.2684 22.9328 12.2684C22.8608 12.2684 22.7916 12.2684 22.7224 12.2657C22.656 12.2603 22.62 12.1955 22.6532 12.136C22.7002 12.0496 22.7528 11.9659 22.8054 11.8822C23.3536 11.0153 23.9045 10.1457 24.4526 9.27603C24.5025 9.19501 24.616 9.10859 24.5717 9.02217C24.5135 8.91144 24.3723 8.97626 24.2699 8.97356C23.8768 8.96546 23.4837 8.97356 23.0934 8.97086C23.0241 8.97086 22.9522 8.97086 22.883 8.96546C22.8248 8.96006 22.7916 8.92495 22.7916 8.86823C22.7916 8.68189 22.7916 8.49554 22.7916 8.30919C22.7916 8.23898 22.8331 8.20117 22.9023 8.19847C22.9522 8.19577 23.002 8.19847 23.0546 8.19847C23.9516 8.19847 24.8457 8.19847 25.7427 8.19847C25.7842 8.19847 25.823 8.19847 25.8645 8.19847C25.9669 8.20657 26.0085 8.26868 25.9642 8.35511C25.9282 8.42532 25.8839 8.49014 25.8396 8.55766C25.2859 9.43538 24.7295 10.3104 24.1758 11.1881C24.1343 11.2556 24.0927 11.3204 24.0568 11.3907C24.0346 11.4339 24.0568 11.469 24.1066 11.4717C24.1869 11.4771 24.2671 11.4771 24.3474 11.4771C24.7904 11.4771 25.2333 11.4771 25.6763 11.4771C25.7455 11.4771 25.8174 11.4771 25.8866 11.4798C25.9448 11.4798 25.9808 11.5176 25.9835 11.5716C25.9863 11.7688 25.9863 11.9632 25.9835 12.1604C25.9835 12.2333 25.9365 12.263 25.8673 12.2657C25.7981 12.2657 25.7261 12.2657 25.6569 12.2657H24.2976" fill="#2D3463"/>
<path d="M14.6599 8.93662C14.6599 8.68276 14.6405 8.46941 14.6738 8.25875C14.9229 8.22364 17.1958 8.22364 17.456 8.25875C17.4837 8.47751 17.4864 8.69896 17.4504 8.93662H17.2013C16.9715 8.93662 16.739 8.93662 16.5092 8.93662C16.3043 8.93662 16.3043 8.93932 16.3016 9.12567C16.3016 9.19319 16.3016 9.2634 16.3016 9.33092V11.9776C16.3016 12.2666 16.3237 12.272 16.0081 12.2693C15.8586 12.2693 15.7064 12.2693 15.5569 12.2666C15.4849 12.2666 15.4461 12.2287 15.4406 12.1585C15.4378 12.0802 15.4378 12.0019 15.4378 11.9236V9.30662C15.4378 9.2391 15.4378 9.16888 15.4378 9.10136C15.4323 8.95013 15.4212 8.93932 15.2607 8.93662C15.0696 8.93392 14.8786 8.93662 14.6599 8.93662Z" fill="#2D3463"/>
<path d="M15.4815 7.62999C15.404 7.28701 15.4483 6.8522 15.5812 6.58213C15.6919 6.36068 15.8635 6.20674 16.0933 6.10681C16.2234 6.0501 16.3591 6.00959 16.5003 6.00419C16.7909 5.99068 17.0816 5.99338 17.3723 5.99338C17.4304 5.99338 17.4664 6.02579 17.4664 6.08251C17.4664 6.24995 17.4664 6.41469 17.4664 6.58213C17.4664 6.62264 17.4332 6.65235 17.3889 6.65505C17.2893 6.66045 17.1896 6.65505 17.0872 6.66315C16.957 6.66855 16.8269 6.67125 16.6968 6.69286C16.4754 6.73067 16.3397 6.8657 16.3092 7.08176C16.2871 7.22489 16.2899 7.37343 16.2816 7.51927C16.2788 7.58678 16.2428 7.62729 16.1708 7.62729C15.9411 7.62729 15.7113 7.62729 15.487 7.62729" fill="#2D3463"/>
<path d="M29.5554 6.33074C29.3118 6.71153 29.0986 7.04101 28.891 7.3732C28.8495 7.43801 28.7996 7.47042 28.7193 7.46772C28.5505 7.46772 28.3816 7.46772 28.2266 7.46772C28.174 7.4029 28.2044 7.35699 28.2238 7.31648C28.3401 7.03561 28.4619 6.75744 28.5754 6.47657C28.6169 6.37125 28.6723 6.31723 28.7941 6.32263C29.0322 6.33074 29.2702 6.31993 29.5582 6.33074" fill="#2D3463"/>
<path d="M6.87345 9.29322C7.09215 9.45256 7.3413 9.56059 7.6043 9.6146C7.61537 9.6146 7.62645 9.62 7.63752 9.62C7.67628 9.6254 7.71227 9.63351 7.75102 9.63891C7.77317 9.64161 7.79532 9.64431 7.82023 9.64701C7.83961 9.64701 7.85899 9.64971 7.87837 9.65241C7.91713 9.65511 7.95865 9.65781 7.99741 9.65781H8.00295C8.1469 9.65781 8.26594 9.54168 8.26594 9.40125C8.26594 9.26081 8.1469 9.14468 8.00295 9.14468C7.64306 9.14468 7.29701 9.00425 7.04232 8.75849C6.61045 8.33718 6.53017 7.70522 6.79593 7.2056V7.2029C6.85684 7.08947 6.93712 6.98144 7.03401 6.88692C7.28317 6.64116 7.62645 6.49532 7.99741 6.49262C8.14137 6.49262 8.26041 6.37649 8.26041 6.23606C8.26041 6.09562 8.14137 5.97949 7.99741 5.97949C7.4908 5.97949 7.02294 6.17934 6.67966 6.50612C6.67412 6.51153 6.66859 6.51423 6.66305 6.51963C6.65198 6.53043 6.64367 6.54123 6.6326 6.54933C6.6326 6.55204 6.62706 6.55474 6.62429 6.55744C6.59107 6.59255 6.55785 6.62765 6.5274 6.66276C6.5274 6.66276 6.5274 6.66546 6.52463 6.66816C6.49695 6.70327 6.46926 6.73838 6.44435 6.77349C6.44158 6.77889 6.43604 6.78429 6.43328 6.78969C6.40836 6.8248 6.38621 6.85991 6.36407 6.89772C6.35853 6.90852 6.35299 6.91933 6.34469 6.93013C6.32531 6.96524 6.30593 7.00035 6.28655 7.03816C6.28101 7.04896 6.27548 7.06246 6.26994 7.07327C6.2561 7.10027 6.24503 7.12998 6.23395 7.15699C6.22842 7.17319 6.22288 7.18669 6.21734 7.2002C6.2035 7.23261 6.19519 7.26771 6.18412 7.30282C6.18135 7.31363 6.17582 7.32173 6.17305 7.33253C6.17305 7.33253 6.17305 7.33253 6.17305 7.33523C6.17305 7.33793 6.17305 7.34333 6.17305 7.34603C6.13152 7.49997 6.10938 7.65931 6.10938 7.81865C6.10938 8.4047 6.39175 8.92863 6.83192 9.26621C6.843 9.27972 6.85684 9.29052 6.87068 9.29862" fill="#2D3463"/>
<path d="M9.02751 8.68221C8.93339 8.79024 8.94446 8.95228 9.05519 9.0441C9.10226 9.08461 9.16316 9.10622 9.22683 9.10622C9.30435 9.10622 9.37909 9.07381 9.43169 9.01709C9.45661 8.98739 9.48152 8.95768 9.50644 8.92797C10.1349 8.11507 9.96876 6.96188 9.13824 6.34883C9.02197 6.26241 8.85587 6.28671 8.77005 6.40014C8.68146 6.51357 8.70638 6.67561 8.82265 6.75933C8.8448 6.77553 8.86418 6.79174 8.88632 6.80794C9.45661 7.28596 9.52305 8.12317 9.03305 8.67951" fill="#2D3463"/>
<path d="M6.61062 5.21715C6.70751 5.16854 6.80994 5.12263 6.91237 5.08212C8.45713 4.49607 10.1957 5.24416 10.7964 6.74844C10.849 6.88077 11.0013 6.94558 11.1369 6.89427C11.2726 6.84296 11.339 6.69442 11.2864 6.56209C10.7577 5.23876 9.45098 4.36914 7.99481 4.36914C7.41345 4.36914 6.86531 4.50958 6.38084 4.75264C6.38084 4.75264 6.37531 4.75264 6.37254 4.75534C6.3587 4.76074 6.34486 4.76884 6.33378 4.77694C6.32271 4.78234 6.31163 4.78775 6.30056 4.79315C5.22643 5.36569 4.5371 6.44056 4.4762 7.62886C4.4762 7.63426 4.4762 7.63966 4.4762 7.64776C4.4762 7.70177 4.47066 7.75579 4.47343 7.8125V7.8179C4.47343 8.09607 4.50942 8.36884 4.57586 8.63621C4.60355 8.75234 4.71151 8.83336 4.83055 8.83336C4.8527 8.83336 4.87208 8.82796 4.89423 8.81985C5.03541 8.78474 5.12123 8.64701 5.08801 8.50928C4.76411 7.19945 5.39253 5.84371 6.61339 5.21985" fill="#2D3463"/>
<path d="M10.1575 10.5461C10.1575 10.5461 10.163 10.5407 10.1685 10.538C10.9437 9.95198 11.4531 9.06346 11.525 8.06691C11.5333 7.92378 11.4254 7.80225 11.2814 7.79144C11.2814 7.79144 11.2759 7.79144 11.2731 7.79144C11.1292 7.78334 11.0073 7.89137 10.999 8.0291C10.9354 8.87171 10.5063 9.6252 9.85017 10.1248C9.84463 10.1275 9.83909 10.1302 9.83355 10.1356C9.54564 10.3517 9.22728 10.511 8.88954 10.6136C8.884 10.6136 8.87846 10.6163 8.87293 10.619C8.30541 10.7865 7.6936 10.7919 7.10947 10.6163C6.97105 10.5731 6.82156 10.6488 6.78003 10.7865C6.73574 10.9215 6.81325 11.0674 6.95444 11.1079C7.29218 11.2105 7.64377 11.2618 7.99535 11.2591C8.77603 11.2645 9.53457 11.0133 10.1547 10.5488" fill="#2D3463"/>
<path d="M12.5358 9.78407C12.4085 9.71655 12.2479 9.76246 12.176 9.88669C11.3676 11.3667 9.78685 12.2903 8.06768 12.2903C7.92096 12.2903 7.80469 12.4064 7.80469 12.5469C7.80469 12.6873 7.92373 12.8034 8.06768 12.8034C9.98063 12.8034 11.7386 11.7799 12.641 10.1352C12.7103 10.0109 12.6632 9.85428 12.5358 9.78407Z" fill="#2D3463"/>
<path d="M6.13332 1.85232C6.27174 1.80911 6.34925 1.66328 6.30496 1.52824C6.26067 1.39321 6.11394 1.31759 5.97275 1.3608C3.69991 2.07918 1.96691 3.89133 1.39386 6.1545C1.39386 6.1545 1.39386 6.1545 1.39386 6.1572C1.36063 6.29493 1.44645 6.43537 1.58764 6.46778C1.60702 6.47318 1.62917 6.47588 1.64855 6.47588C1.77312 6.47858 1.88386 6.39756 1.91154 6.27873C2.4403 4.19111 4.03489 2.51669 6.13332 1.85232Z" fill="#2D3463"/>
<path d="M11.5085 12.9501C10.4842 13.5955 9.29108 13.9385 8.07022 13.9358C7.89304 13.9358 7.71033 13.9277 7.53592 13.9142C7.39197 13.9034 7.26462 14.0087 7.25078 14.1492C7.23971 14.2896 7.34767 14.4138 7.49163 14.4273C7.68265 14.4435 7.87643 14.4516 8.07022 14.4516C9.39074 14.4516 10.6808 14.0816 11.7909 13.3822C11.8075 13.3741 11.8214 13.366 11.8324 13.3552C11.946 13.2687 11.9681 13.1067 11.8767 12.996C11.7882 12.8852 11.6221 12.8636 11.5085 12.9528" fill="#2D3463"/>
<path d="M14.3456 5.00687C14.0909 4.45323 13.7587 3.9374 13.3601 3.47018C13.2659 3.36216 13.1026 3.34595 12.9891 3.43777C12.8784 3.5269 12.8618 3.68894 12.9559 3.79966C13.3213 4.23177 13.6286 4.70709 13.8639 5.22022C13.9054 5.31204 13.9996 5.37146 14.102 5.37146C14.1407 5.37146 14.1795 5.36336 14.2127 5.34715C14.3456 5.29044 14.4037 5.1365 14.3456 5.00687Z" fill="#2D3463"/>
<path d="M10.1975 15.2751C9.50262 15.4588 8.78561 15.5506 8.0686 15.5506C7.93849 15.5614 7.83329 15.6613 7.82498 15.7883C7.81391 15.9314 7.92464 16.0529 8.0686 16.0637C8.83544 16.0637 9.59951 15.9665 10.3387 15.7693C10.347 15.7693 10.3553 15.7666 10.3608 15.7639C10.4992 15.7207 10.574 15.5749 10.5297 15.4399C10.4854 15.3048 10.3359 15.2319 10.1975 15.2751Z" fill="#2D3463"/>
<path d="M5.47439 3.38166C5.44948 3.38706 5.42179 3.39516 5.39965 3.41137C3.83551 4.3215 2.88042 5.97161 2.88873 7.74865C2.88873 7.89179 3.00777 8.00522 3.15172 8.00522C3.15449 8.00522 3.15726 8.00522 3.1628 8.00522C3.30675 8.00251 3.42302 7.88369 3.42025 7.74325C3.41195 6.39291 4.02653 5.1263 5.06467 4.27288C5.08682 4.26208 5.11173 4.25128 5.13111 4.23507C6.31044 3.29254 7.89119 2.97386 9.35566 3.38436C11.8278 4.07303 13.2618 6.58736 12.5559 8.99906C12.5171 9.1368 12.5974 9.27723 12.7386 9.31504C12.7608 9.32045 12.7857 9.32585 12.8106 9.32585C12.9269 9.32585 13.0265 9.24753 13.057 9.1395C13.5165 7.5569 13.1566 5.85278 12.0936 4.57536C10.4658 2.61737 7.6448 2.15825 5.47716 3.38436" fill="#2D3463"/>
<path d="M15.6932 15.8223V14.2289H16.1306C16.5846 14.2289 16.9528 14.5881 16.9528 15.0283C16.9528 15.4685 16.5846 15.8277 16.1306 15.8277L15.6932 15.8196V15.8223ZM17.2241 15.0229C17.2241 14.418 16.7673 13.9805 16.1389 13.9805H15.4219V16.0681H16.1361C16.7673 16.0681 17.2241 15.6306 17.2241 15.0229Z" fill="#2D3463"/>
<path d="M17.8794 14.457H17.6191V16.0693H17.8794V14.457Z" fill="#2D3463"/>
<path d="M17.8879 13.8867H17.6055V14.1785H17.8879V13.8867Z" fill="#2D3463"/>
<path d="M20.7212 14.457H20.4609V16.0693H20.7212V14.457Z" fill="#2D3463"/>
<path d="M20.7336 13.8867H20.4512V14.1785H20.7336V13.8867Z" fill="#2D3463"/>
<path d="M21.3219 15.5051C21.3219 15.8535 21.5406 16.0668 21.895 16.0668H22.1081V15.8319H21.9282C21.704 15.8319 21.5822 15.7104 21.5822 15.4943V14.6841H22.0998V14.4545H21.5822V14.1143H21.5406L21.0312 14.6382V14.6841H21.3219V15.5024V15.5051Z" fill="#2D3463"/>
<path d="M23.1792 14.6675C23.517 14.6675 23.791 14.9322 23.791 15.2617C23.791 15.5912 23.5197 15.8585 23.182 15.8585C22.8443 15.8585 22.5702 15.5939 22.5702 15.2644C22.5591 14.9457 22.8138 14.6783 23.1377 14.6675C23.1515 14.6675 23.1654 14.6675 23.1792 14.6675ZM23.1571 16.1043C23.4035 16.1097 23.6415 16.0071 23.8049 15.8261L23.8326 16.0692H24.0485V14.4596H23.8409L23.8076 14.7053C23.4921 14.3597 22.9467 14.3326 22.5923 14.6405C22.238 14.9511 22.2103 15.4804 22.5259 15.8261C22.6865 16.0017 22.9135 16.1016 23.1543 16.1043" fill="#2D3463"/>
<path d="M24.8325 13.8818H24.5723V16.0694H24.8325V13.8818Z" fill="#2D3463"/>
<path d="M22.1161 14.8701H21.0254V15.0835H22.1161V14.8701Z" fill="#2D3463"/>
<path d="M16.12 14.9863H15.0293V15.1997H16.12V14.9863Z" fill="#2D3463"/>
<path d="M19.1349 15.775C19.1349 15.775 19.1183 15.775 19.1127 15.775C18.7999 15.775 18.5452 15.5265 18.548 15.2186C18.548 14.9134 18.8055 14.665 19.1183 14.6677C19.4311 14.6677 19.6858 14.9188 19.683 15.224C19.6886 15.5238 19.445 15.7723 19.1349 15.7777M19.7661 14.457L19.7246 14.7082C19.5668 14.5246 19.3315 14.4192 19.0823 14.4219C18.6311 14.4219 18.2656 14.7784 18.2656 15.2186C18.2656 15.6588 18.6311 16.0153 19.0823 16.0153C19.3093 16.018 19.5252 15.9316 19.683 15.775V15.8722C19.683 16.2125 19.4782 16.4231 19.1709 16.442C18.9134 16.4312 18.7252 16.2908 18.6643 16.0504H18.4068C18.4871 16.4366 18.7944 16.6446 19.0961 16.6446H19.2318C19.5861 16.6446 19.9433 16.3583 19.9433 15.8398V14.4516H19.7661V14.457Z" fill="#2D3463"/>
<path d="M26.3315 15.3672L26.7412 14.3787L27.1593 15.3672H26.3315ZM26.6139 14.0195L25.7363 16.1072H26.0215L26.2319 15.6075H27.2617L27.4749 16.1072H27.7656L26.8658 14.0195H26.6167H26.6139Z" fill="#2D3463"/>
<path d="M29.4145 14.74L29.373 14.4943H29.1875V16.1066H29.4477V15.2316C29.4477 14.9183 29.6194 14.7265 29.9156 14.7265H30.0872V14.4862H29.9377C29.7301 14.4754 29.5308 14.5726 29.4117 14.74" fill="#2D3463"/>
<path d="M30.6274 14.4941H30.3672V16.1064H30.6274V14.4941Z" fill="#2D3463"/>
<path d="M30.6399 13.9248H30.3574V14.2166H30.6399V13.9248Z" fill="#2D3463"/>
<path d="M31.8777 15.8963C31.54 15.8855 31.277 15.6101 31.2908 15.2806C31.3019 14.97 31.5594 14.7188 31.8777 14.708C32.113 14.7026 32.3262 14.8323 32.4259 15.0402H32.6833C32.5864 14.6891 32.2542 14.4515 31.8805 14.4623C31.4043 14.4623 31.0195 14.8377 31.0195 15.3022C31.0195 15.7667 31.4043 16.1421 31.8805 16.1421C32.257 16.1529 32.5892 15.9098 32.6861 15.556H32.4203C32.3262 15.7667 32.113 15.9017 31.8777 15.8963Z" fill="#2D3463"/>
<path d="M33.7409 15.8586C33.4032 15.8586 33.1291 15.5967 33.1263 15.2672C33.1263 14.9377 33.3949 14.6704 33.7326 14.6677C34.0703 14.665 34.3444 14.9296 34.3472 15.2591V15.2645C34.3555 15.5832 34.098 15.8505 33.7714 15.8613C33.7603 15.8613 33.752 15.8613 33.7409 15.8613V15.8586ZM34.3721 14.7055C34.0537 14.3598 33.5111 14.3328 33.1568 14.6406C32.8024 14.9485 32.7747 15.4806 33.0903 15.8262C33.4087 16.1719 33.9513 16.1989 34.3057 15.8911C34.3278 15.8722 34.35 15.8505 34.3721 15.8262L34.3998 16.0693H34.6157V14.4597H34.4109L34.3749 14.7055H34.3721Z" fill="#2D3463"/>
<path d="M28.7121 13.8793H28.8837V13.6309H28.7342C28.5847 13.6309 28.3411 13.6714 28.2221 13.828C28.2193 13.8307 28.2165 13.8334 28.2138 13.8388C28.2138 13.8388 28.2138 13.8415 28.211 13.8442C28.1446 13.9306 28.1141 14.0468 28.1141 14.1953V14.5869H27.793V14.8003H28.1169V15.0622H27.793V15.2756H28.1169V16.553H28.3771V15.2756H28.8837V15.0622H28.3771V14.7976H28.8837V14.5842H28.3743V14.3762C28.3743 13.9225 28.4131 13.8901 28.7121 13.8793Z" fill="#2D3463"/>
<path d="M28.8837 15.0615H27.793V15.2749H28.8837V15.0615Z" fill="#2D3463"/>
<path d="M27.3948 9.79791C27.4668 9.84652 27.5471 9.82492 27.6246 9.82492C28.0565 9.82492 28.4856 9.82492 28.9174 9.82492C29.1887 9.82492 29.46 9.82492 29.7286 9.82492C29.8282 9.82492 29.8587 9.78441 29.831 9.70068C29.676 9.27128 29.377 8.99041 28.923 8.88778C28.7375 8.84457 28.5437 8.85267 28.3555 8.87968C27.871 8.9472 27.4862 9.31719 27.3976 9.79791M30.6006 11.0105C30.6061 11.0996 30.5536 11.1726 30.512 11.2482C30.1078 11.9612 29.4933 12.3311 28.6544 12.3581C27.3229 12.4014 26.2709 11.2752 26.4951 9.87083C26.6086 9.16325 26.9851 8.63122 27.6468 8.30984C28.1838 8.05057 28.7541 8.02357 29.3189 8.20721C30.0719 8.45297 30.5037 8.98771 30.6837 9.73039C30.7335 9.94104 30.7556 10.1571 30.7363 10.3732C30.7252 10.4866 30.7003 10.5136 30.5895 10.5163C30.5093 10.519 30.429 10.5163 30.3487 10.5163H27.7215C27.6412 10.5163 27.5609 10.5163 27.4806 10.5163C27.381 10.519 27.3478 10.5541 27.3699 10.6405C27.4862 11.0861 27.7603 11.3967 28.217 11.5155C28.779 11.656 29.2773 11.5425 29.6538 11.0807C29.7175 11.0024 29.7839 10.97 29.8836 10.9727C30.1051 10.9781 30.3265 10.9754 30.548 10.9781C30.5646 10.9781 30.5812 10.9943 30.6034 11.0051" fill="#2D3463"/>
<path d="M21.9192 9.52502C21.9192 9.868 21.9192 10.211 21.9192 10.5567C21.9192 10.7457 21.8943 10.9294 21.8444 11.1103C21.634 11.8449 21.0721 12.2554 20.3191 12.3445C20.0505 12.3769 19.7792 12.3661 19.5079 12.3094C18.7522 12.1501 18.1846 11.5802 18.1265 10.6998C18.121 10.6215 18.1237 10.5432 18.1237 10.4649C18.1237 9.81669 18.1237 9.16853 18.1237 8.52036C18.1237 8.47175 18.1237 8.42314 18.1237 8.37183C18.1293 8.21249 18.1403 8.19628 18.2898 8.19358C18.4726 8.19088 18.6525 8.19358 18.8324 8.19358C18.8435 8.19358 18.8518 8.19358 18.8629 8.19358C18.9321 8.19358 18.9792 8.22329 18.9792 8.29621C18.9819 8.37453 18.9819 8.45285 18.9819 8.53117C18.9819 9.11991 18.9819 9.70866 18.9819 10.2974C18.9819 10.454 18.9902 10.6107 19.0235 10.7673C19.1176 11.2291 19.4387 11.5073 19.9149 11.5478C20.5184 11.5991 20.953 11.2615 21.0278 10.6755C21.0471 10.5297 21.0499 10.3811 21.0499 10.2353C21.0499 9.66545 21.0499 9.09561 21.0499 8.52577C21.0499 8.44745 21.0499 8.36913 21.0555 8.29081C21.0582 8.23679 21.0942 8.19628 21.1496 8.19628C21.371 8.19358 21.5925 8.19628 21.814 8.19628C21.8694 8.19628 21.9081 8.22869 21.9109 8.28541C21.9164 8.35292 21.9137 8.42314 21.9137 8.49066C21.9137 8.83364 21.9137 9.17933 21.9137 9.52231L21.9192 9.52502Z" fill="#2D3463"/>
<path d="M24.2921 12.2684C23.838 12.2684 23.3868 12.2684 22.9328 12.2684C22.8608 12.2684 22.7916 12.2684 22.7224 12.2657C22.656 12.2603 22.62 12.1955 22.6532 12.136C22.7002 12.0496 22.7528 11.9659 22.8054 11.8822C23.3536 11.0153 23.9045 10.1457 24.4526 9.27603C24.5025 9.19501 24.616 9.10859 24.5717 9.02217C24.5135 8.91144 24.3723 8.97626 24.2699 8.97356C23.8768 8.96546 23.4837 8.97356 23.0934 8.97086C23.0241 8.97086 22.9522 8.97086 22.883 8.96546C22.8248 8.96006 22.7916 8.92495 22.7916 8.86823C22.7916 8.68189 22.7916 8.49554 22.7916 8.30919C22.7916 8.23898 22.8331 8.20117 22.9023 8.19847C22.9522 8.19577 23.002 8.19847 23.0546 8.19847C23.9516 8.19847 24.8457 8.19847 25.7427 8.19847C25.7842 8.19847 25.823 8.19847 25.8645 8.19847C25.9669 8.20657 26.0085 8.26868 25.9642 8.35511C25.9282 8.42532 25.8839 8.49014 25.8396 8.55766C25.2859 9.43538 24.7295 10.3104 24.1758 11.1881C24.1343 11.2556 24.0927 11.3204 24.0568 11.3907C24.0346 11.4339 24.0568 11.469 24.1066 11.4717C24.1869 11.4771 24.2671 11.4771 24.3474 11.4771C24.7904 11.4771 25.2333 11.4771 25.6763 11.4771C25.7455 11.4771 25.8174 11.4771 25.8866 11.4798C25.9448 11.4798 25.9808 11.5176 25.9835 11.5716C25.9863 11.7688 25.9863 11.9632 25.9835 12.1604C25.9835 12.2333 25.9365 12.263 25.8673 12.2657C25.7981 12.2657 25.7261 12.2657 25.6569 12.2657H24.2976" fill="#2D3463"/>
<path d="M14.6599 8.93662C14.6599 8.68276 14.6405 8.46941 14.6738 8.25875C14.9229 8.22364 17.1958 8.22364 17.456 8.25875C17.4837 8.47751 17.4864 8.69896 17.4504 8.93662H17.2013C16.9715 8.93662 16.739 8.93662 16.5092 8.93662C16.3043 8.93662 16.3043 8.93932 16.3016 9.12567C16.3016 9.19319 16.3016 9.2634 16.3016 9.33092V11.9776C16.3016 12.2666 16.3237 12.272 16.0081 12.2693C15.8586 12.2693 15.7064 12.2693 15.5569 12.2666C15.4849 12.2666 15.4461 12.2287 15.4406 12.1585C15.4378 12.0802 15.4378 12.0019 15.4378 11.9236V9.30662C15.4378 9.2391 15.4378 9.16888 15.4378 9.10136C15.4323 8.95013 15.4212 8.93932 15.2607 8.93662C15.0696 8.93392 14.8786 8.93662 14.6599 8.93662Z" fill="#2D3463"/>
<path d="M15.4815 7.62999C15.404 7.28701 15.4483 6.8522 15.5812 6.58213C15.6919 6.36068 15.8635 6.20674 16.0933 6.10681C16.2234 6.0501 16.3591 6.00959 16.5003 6.00419C16.7909 5.99068 17.0816 5.99338 17.3723 5.99338C17.4304 5.99338 17.4664 6.02579 17.4664 6.08251C17.4664 6.24995 17.4664 6.41469 17.4664 6.58213C17.4664 6.62264 17.4332 6.65235 17.3889 6.65505C17.2893 6.66045 17.1896 6.65505 17.0872 6.66315C16.957 6.66855 16.8269 6.67125 16.6968 6.69286C16.4754 6.73067 16.3397 6.8657 16.3092 7.08176C16.2871 7.22489 16.2899 7.37343 16.2816 7.51927C16.2788 7.58678 16.2428 7.62729 16.1708 7.62729C15.9411 7.62729 15.7113 7.62729 15.487 7.62729" fill="#2D3463"/>
<path d="M29.5554 6.33074C29.3118 6.71153 29.0986 7.04101 28.891 7.3732C28.8495 7.43801 28.7996 7.47042 28.7193 7.46772C28.5505 7.46772 28.3816 7.46772 28.2266 7.46772C28.174 7.4029 28.2044 7.35699 28.2238 7.31648C28.3401 7.03561 28.4619 6.75744 28.5754 6.47657C28.6169 6.37125 28.6723 6.31723 28.7941 6.32263C29.0322 6.33074 29.2702 6.31993 29.5582 6.33074" fill="#2D3463"/>
<path d="M6.87345 9.29322C7.09215 9.45256 7.3413 9.56059 7.6043 9.6146C7.61537 9.6146 7.62645 9.62 7.63752 9.62C7.67628 9.6254 7.71227 9.63351 7.75102 9.63891C7.77317 9.64161 7.79532 9.64431 7.82023 9.64701C7.83961 9.64701 7.85899 9.64971 7.87837 9.65241C7.91713 9.65511 7.95865 9.65781 7.99741 9.65781H8.00295C8.1469 9.65781 8.26594 9.54168 8.26594 9.40125C8.26594 9.26081 8.1469 9.14468 8.00295 9.14468C7.64306 9.14468 7.29701 9.00425 7.04232 8.75849C6.61045 8.33718 6.53017 7.70522 6.79593 7.2056V7.2029C6.85684 7.08947 6.93712 6.98144 7.03401 6.88692C7.28317 6.64116 7.62645 6.49532 7.99741 6.49262C8.14137 6.49262 8.26041 6.37649 8.26041 6.23606C8.26041 6.09562 8.14137 5.97949 7.99741 5.97949C7.4908 5.97949 7.02294 6.17934 6.67966 6.50612C6.67412 6.51153 6.66859 6.51423 6.66305 6.51963C6.65198 6.53043 6.64367 6.54123 6.6326 6.54933C6.6326 6.55204 6.62706 6.55474 6.62429 6.55744C6.59107 6.59255 6.55785 6.62765 6.5274 6.66276C6.5274 6.66276 6.5274 6.66546 6.52463 6.66816C6.49695 6.70327 6.46926 6.73838 6.44435 6.77349C6.44158 6.77889 6.43604 6.78429 6.43328 6.78969C6.40836 6.8248 6.38621 6.85991 6.36407 6.89772C6.35853 6.90852 6.35299 6.91933 6.34469 6.93013C6.32531 6.96524 6.30593 7.00035 6.28655 7.03816C6.28101 7.04896 6.27548 7.06246 6.26994 7.07327C6.2561 7.10027 6.24503 7.12998 6.23395 7.15699C6.22842 7.17319 6.22288 7.18669 6.21734 7.2002C6.2035 7.23261 6.19519 7.26771 6.18412 7.30282C6.18135 7.31363 6.17582 7.32173 6.17305 7.33253C6.17305 7.33253 6.17305 7.33253 6.17305 7.33523C6.17305 7.33793 6.17305 7.34333 6.17305 7.34603C6.13152 7.49997 6.10938 7.65931 6.10938 7.81865C6.10938 8.4047 6.39175 8.92863 6.83192 9.26621C6.843 9.27972 6.85684 9.29052 6.87068 9.29862" fill="#2D3463"/>
<path d="M9.02751 8.68221C8.93339 8.79024 8.94446 8.95228 9.05519 9.0441C9.10226 9.08461 9.16316 9.10622 9.22683 9.10622C9.30435 9.10622 9.37909 9.07381 9.43169 9.01709C9.45661 8.98739 9.48152 8.95768 9.50644 8.92797C10.1349 8.11507 9.96876 6.96188 9.13824 6.34883C9.02197 6.26241 8.85587 6.28671 8.77005 6.40014C8.68146 6.51357 8.70638 6.67561 8.82265 6.75933C8.8448 6.77553 8.86418 6.79174 8.88632 6.80794C9.45661 7.28596 9.52305 8.12317 9.03305 8.67951" fill="#2D3463"/>
<path d="M6.61062 5.21715C6.70751 5.16854 6.80994 5.12263 6.91237 5.08212C8.45713 4.49607 10.1957 5.24416 10.7964 6.74844C10.849 6.88077 11.0013 6.94558 11.1369 6.89427C11.2726 6.84296 11.339 6.69442 11.2864 6.56209C10.7577 5.23876 9.45098 4.36914 7.99481 4.36914C7.41345 4.36914 6.86531 4.50958 6.38084 4.75264C6.38084 4.75264 6.37531 4.75264 6.37254 4.75534C6.3587 4.76074 6.34486 4.76884 6.33378 4.77694C6.32271 4.78234 6.31163 4.78775 6.30056 4.79315C5.22643 5.36569 4.5371 6.44056 4.4762 7.62886C4.4762 7.63426 4.4762 7.63966 4.4762 7.64776C4.4762 7.70177 4.47066 7.75579 4.47343 7.8125V7.8179C4.47343 8.09607 4.50942 8.36884 4.57586 8.63621C4.60355 8.75234 4.71151 8.83336 4.83055 8.83336C4.8527 8.83336 4.87208 8.82796 4.89423 8.81985C5.03541 8.78474 5.12123 8.64701 5.08801 8.50928C4.76411 7.19945 5.39253 5.84371 6.61339 5.21985" fill="#2D3463"/>
<path d="M10.1575 10.5461C10.1575 10.5461 10.163 10.5407 10.1685 10.538C10.9437 9.95198 11.4531 9.06346 11.525 8.06691C11.5333 7.92378 11.4254 7.80225 11.2814 7.79144C11.2814 7.79144 11.2759 7.79144 11.2731 7.79144C11.1292 7.78334 11.0073 7.89137 10.999 8.0291C10.9354 8.87171 10.5063 9.6252 9.85017 10.1248C9.84463 10.1275 9.83909 10.1302 9.83355 10.1356C9.54564 10.3517 9.22728 10.511 8.88954 10.6136C8.884 10.6136 8.87846 10.6163 8.87293 10.619C8.30541 10.7865 7.6936 10.7919 7.10947 10.6163C6.97105 10.5731 6.82156 10.6488 6.78003 10.7865C6.73574 10.9215 6.81325 11.0674 6.95444 11.1079C7.29218 11.2105 7.64377 11.2618 7.99535 11.2591C8.77603 11.2645 9.53457 11.0133 10.1547 10.5488" fill="#2D3463"/>
<path d="M12.5358 9.78407C12.4085 9.71655 12.2479 9.76246 12.176 9.88669C11.3676 11.3667 9.78685 12.2903 8.06768 12.2903C7.92096 12.2903 7.80469 12.4064 7.80469 12.5469C7.80469 12.6873 7.92373 12.8034 8.06768 12.8034C9.98063 12.8034 11.7386 11.7799 12.641 10.1352C12.7103 10.0109 12.6632 9.85428 12.5358 9.78407Z" fill="#2D3463"/>
<path d="M6.13332 1.85232C6.27174 1.80911 6.34925 1.66328 6.30496 1.52824C6.26067 1.39321 6.11394 1.31759 5.97275 1.3608C3.69991 2.07918 1.96691 3.89133 1.39386 6.1545C1.39386 6.1545 1.39386 6.1545 1.39386 6.1572C1.36063 6.29493 1.44645 6.43537 1.58764 6.46778C1.60702 6.47318 1.62917 6.47588 1.64855 6.47588C1.77312 6.47858 1.88386 6.39756 1.91154 6.27873C2.4403 4.19111 4.03489 2.51669 6.13332 1.85232Z" fill="#2D3463"/>
<path d="M11.5085 12.9501C10.4842 13.5955 9.29108 13.9385 8.07022 13.9358C7.89304 13.9358 7.71033 13.9277 7.53592 13.9142C7.39197 13.9034 7.26462 14.0087 7.25078 14.1492C7.23971 14.2896 7.34767 14.4138 7.49163 14.4273C7.68265 14.4435 7.87643 14.4516 8.07022 14.4516C9.39074 14.4516 10.6808 14.0816 11.7909 13.3822C11.8075 13.3741 11.8214 13.366 11.8324 13.3552C11.946 13.2687 11.9681 13.1067 11.8767 12.996C11.7882 12.8852 11.6221 12.8636 11.5085 12.9528" fill="#2D3463"/>
<path d="M14.3456 5.00687C14.0909 4.45323 13.7587 3.9374 13.3601 3.47018C13.2659 3.36216 13.1026 3.34595 12.9891 3.43777C12.8784 3.5269 12.8618 3.68894 12.9559 3.79966C13.3213 4.23177 13.6286 4.70709 13.8639 5.22022C13.9054 5.31204 13.9996 5.37146 14.102 5.37146C14.1407 5.37146 14.1795 5.36336 14.2127 5.34715C14.3456 5.29044 14.4037 5.1365 14.3456 5.00687Z" fill="#2D3463"/>
<path d="M10.1975 15.2751C9.50262 15.4588 8.78561 15.5506 8.0686 15.5506C7.93849 15.5614 7.83329 15.6613 7.82498 15.7883C7.81391 15.9314 7.92464 16.0529 8.0686 16.0637C8.83544 16.0637 9.59951 15.9665 10.3387 15.7693C10.347 15.7693 10.3553 15.7666 10.3608 15.7639C10.4992 15.7207 10.574 15.5749 10.5297 15.4399C10.4854 15.3048 10.3359 15.2319 10.1975 15.2751Z" fill="#2D3463"/>
<path d="M5.47439 3.38166C5.44948 3.38706 5.42179 3.39516 5.39965 3.41137C3.83551 4.3215 2.88042 5.97161 2.88873 7.74865C2.88873 7.89179 3.00777 8.00522 3.15172 8.00522C3.15449 8.00522 3.15726 8.00522 3.1628 8.00522C3.30675 8.00251 3.42302 7.88369 3.42025 7.74325C3.41195 6.39291 4.02653 5.1263 5.06467 4.27288C5.08682 4.26208 5.11173 4.25128 5.13111 4.23507C6.31044 3.29254 7.89119 2.97386 9.35566 3.38436C11.8278 4.07303 13.2618 6.58736 12.5559 8.99906C12.5171 9.1368 12.5974 9.27723 12.7386 9.31504C12.7608 9.32045 12.7857 9.32585 12.8106 9.32585C12.9269 9.32585 13.0265 9.24753 13.057 9.1395C13.5165 7.5569 13.1566 5.85278 12.0936 4.57536C10.4658 2.61737 7.6448 2.15825 5.47716 3.38436" fill="#2D3463"/>
<path d="M15.6932 15.8223V14.2289H16.1306C16.5846 14.2289 16.9528 14.5881 16.9528 15.0283C16.9528 15.4685 16.5846 15.8277 16.1306 15.8277L15.6932 15.8196V15.8223ZM17.2241 15.0229C17.2241 14.418 16.7673 13.9805 16.1389 13.9805H15.4219V16.0681H16.1361C16.7673 16.0681 17.2241 15.6306 17.2241 15.0229Z" fill="#2D3463"/>
<path d="M17.8794 14.457H17.6191V16.0693H17.8794V14.457Z" fill="#2D3463"/>
<path d="M17.8879 13.8867H17.6055V14.1785H17.8879V13.8867Z" fill="#2D3463"/>
<path d="M20.7212 14.457H20.4609V16.0693H20.7212V14.457Z" fill="#2D3463"/>
<path d="M20.7336 13.8867H20.4512V14.1785H20.7336V13.8867Z" fill="#2D3463"/>
<path d="M21.3219 15.5051C21.3219 15.8535 21.5406 16.0668 21.895 16.0668H22.1081V15.8319H21.9282C21.704 15.8319 21.5822 15.7104 21.5822 15.4943V14.6841H22.0998V14.4545H21.5822V14.1143H21.5406L21.0312 14.6382V14.6841H21.3219V15.5024V15.5051Z" fill="#2D3463"/>
<path d="M23.1792 14.6675C23.517 14.6675 23.791 14.9322 23.791 15.2617C23.791 15.5912 23.5197 15.8585 23.182 15.8585C22.8443 15.8585 22.5702 15.5939 22.5702 15.2644C22.5591 14.9457 22.8138 14.6783 23.1377 14.6675C23.1515 14.6675 23.1654 14.6675 23.1792 14.6675ZM23.1571 16.1043C23.4035 16.1097 23.6415 16.0071 23.8049 15.8261L23.8326 16.0692H24.0485V14.4596H23.8409L23.8076 14.7053C23.4921 14.3597 22.9467 14.3326 22.5923 14.6405C22.238 14.9511 22.2103 15.4804 22.5259 15.8261C22.6865 16.0017 22.9135 16.1016 23.1543 16.1043" fill="#2D3463"/>
<path d="M24.8325 13.8818H24.5723V16.0694H24.8325V13.8818Z" fill="#2D3463"/>
<path d="M22.1161 14.8701H21.0254V15.0835H22.1161V14.8701Z" fill="#2D3463"/>
<path d="M16.12 14.9863H15.0293V15.1997H16.12V14.9863Z" fill="#2D3463"/>
<path d="M19.1349 15.775C19.1349 15.775 19.1183 15.775 19.1127 15.775C18.7999 15.775 18.5452 15.5265 18.548 15.2186C18.548 14.9134 18.8055 14.665 19.1183 14.6677C19.4311 14.6677 19.6858 14.9188 19.683 15.224C19.6886 15.5238 19.445 15.7723 19.1349 15.7777M19.7661 14.457L19.7246 14.7082C19.5668 14.5246 19.3315 14.4192 19.0823 14.4219C18.6311 14.4219 18.2656 14.7784 18.2656 15.2186C18.2656 15.6588 18.6311 16.0153 19.0823 16.0153C19.3093 16.018 19.5252 15.9316 19.683 15.775V15.8722C19.683 16.2125 19.4782 16.4231 19.1709 16.442C18.9134 16.4312 18.7252 16.2908 18.6643 16.0504H18.4068C18.4871 16.4366 18.7944 16.6446 19.0961 16.6446H19.2318C19.5861 16.6446 19.9433 16.3583 19.9433 15.8398V14.4516H19.7661V14.457Z" fill="#2D3463"/>
<path d="M26.3315 15.3672L26.7412 14.3787L27.1593 15.3672H26.3315ZM26.6139 14.0195L25.7363 16.1072H26.0215L26.2319 15.6075H27.2617L27.4749 16.1072H27.7656L26.8658 14.0195H26.6167H26.6139Z" fill="#2D3463"/>
<path d="M29.4145 14.74L29.373 14.4943H29.1875V16.1066H29.4477V15.2316C29.4477 14.9183 29.6194 14.7265 29.9156 14.7265H30.0872V14.4862H29.9377C29.7301 14.4754 29.5308 14.5726 29.4117 14.74" fill="#2D3463"/>
<path d="M30.6274 14.4941H30.3672V16.1064H30.6274V14.4941Z" fill="#2D3463"/>
<path d="M30.6399 13.9248H30.3574V14.2166H30.6399V13.9248Z" fill="#2D3463"/>
<path d="M31.8777 15.8963C31.54 15.8855 31.277 15.6101 31.2908 15.2806C31.3019 14.97 31.5594 14.7188 31.8777 14.708C32.113 14.7026 32.3262 14.8323 32.4259 15.0402H32.6833C32.5864 14.6891 32.2542 14.4515 31.8805 14.4623C31.4043 14.4623 31.0195 14.8377 31.0195 15.3022C31.0195 15.7667 31.4043 16.1421 31.8805 16.1421C32.257 16.1529 32.5892 15.9098 32.6861 15.556H32.4203C32.3262 15.7667 32.113 15.9017 31.8777 15.8963Z" fill="#2D3463"/>
<path d="M33.7409 15.8586C33.4032 15.8586 33.1291 15.5967 33.1263 15.2672C33.1263 14.9377 33.3949 14.6704 33.7326 14.6677C34.0703 14.665 34.3444 14.9296 34.3472 15.2591V15.2645C34.3555 15.5832 34.098 15.8505 33.7714 15.8613C33.7603 15.8613 33.752 15.8613 33.7409 15.8613V15.8586ZM34.3721 14.7055C34.0537 14.3598 33.5111 14.3328 33.1568 14.6406C32.8024 14.9485 32.7747 15.4806 33.0903 15.8262C33.4087 16.1719 33.9513 16.1989 34.3057 15.8911C34.3278 15.8722 34.35 15.8505 34.3721 15.8262L34.3998 16.0693H34.6157V14.4597H34.4109L34.3749 14.7055H34.3721Z" fill="#2D3463"/>
<path d="M28.7121 13.8793H28.8837V13.6309H28.7342C28.5847 13.6309 28.3411 13.6714 28.2221 13.828C28.2193 13.8307 28.2165 13.8334 28.2138 13.8388C28.2138 13.8388 28.2138 13.8415 28.211 13.8442C28.1446 13.9306 28.1141 14.0468 28.1141 14.1953V14.5869H27.793V14.8003H28.1169V15.0622H27.793V15.2756H28.1169V16.553H28.3771V15.2756H28.8837V15.0622H28.3771V14.7976H28.8837V14.5842H28.3743V14.3762C28.3743 13.9225 28.4131 13.8901 28.7121 13.8793Z" fill="#2D3463"/>
<path d="M28.8837 15.0615H27.793V15.2749H28.8837V15.0615Z" fill="#2D3463"/>
</svg>
